# File created by Blade
# Date/Time:  Wed Apr 08 14:10:35 2015
# Frame Rate: 120.000 fps
#------------------------------------------------------
:FULLY-SPECIFIED
:DEGREES
393
root 0.031281 26.001623 1.618177 21.022060 3.722250 -0.387531
Spine 4.352912 -6.742295 -1.504032
Head -28.906723 -4.688976 5.767516
LeftShoulder 1.313947 16.691941 24.345171
LeftArm 82.640538 -3.610067 -68.842544
LeftForeArm 10.092944 -0.000000 46.682125
LeftHand 26.010145 -0.000000 26.555606
LeftHandThumb1 -26.253704 0.000000 33.147579
RightShoulder 7.320953 23.290543 -21.483187
RightArm 41.249933 -9.623619 76.242437
RightForeArm -6.456339 -0.000000 43.592457
RightHand 25.615289 -0.000000 -20.926976
RightHandThumb1 -24.326973 -0.000000 -32.862282
LeftUpLeg -60.460405 -5.875905 -0.188253
LeftLeg 79.951598 -0.000000 -0.000000
LeftFoot -38.012957 6.592446 -16.232423
LeftToeBase -16.202291 -0.000000 0.000000
RightUpLeg -59.860306 6.102597 2.200873
RightLeg 80.979610 -0.000000 -0.000000
RightFoot -38.303103 -19.403053 12.320271
RightToeBase -17.116194 -0.000000 0.000000
394
root 0.032125 26.041478 1.795539 20.635284 3.626935 -0.459033
Spine 3.872888 -6.792416 -1.331176
Head -28.525106 -4.536404 5.550530
LeftShoulder 1.605187 15.298859 26.627550
LeftArm 85.209398 -7.845523 -70.042755
LeftForeArm 10.175255 -0.000000 50.857551
LeftHand 26.182698 -0.000000 27.296183
LeftHandThumb1 -26.253704 0.000000 33.147579
RightShoulder 7.396589 25.916341 -23.837955
RightArm 43.363133 -6.267506 75.014842
RightForeArm -5.979571 -0.000000 46.477930
RightHand 25.578515 -0.000000 -21.942495
RightHandThumb1 -24.326973 -0.000000 -32.862282
LeftUpLeg -59.435821 -5.651510 -0.235742
LeftLeg 79.659772 -0.000000 -0.000000
LeftFoot -38.493007 6.422495 -16.187189
LeftToeBase -16.297603 -0.000000 0.000000
RightUpLeg -59.132393 6.780340 2.015719
RightLeg 80.988038 -0.000000 -0.000000
RightFoot -38.074761 -19.485849 12.572488
RightToeBase -17.762298 -0.000000 0.000000
395
root 0.041862 26.170803 1.963756 20.573376 3.694150 -0.428879
Spine 3.247921 -6.994684 -1.162966
Head -28.552549 -4.448126 5.542745
LeftShoulder 1.720235 13.757269 28.919352
LeftArm 87.380194 -12.311811 -71.535785
LeftForeArm 10.363380 -0.000000 54.854572
LeftHand 26.378742 -0.000000 28.686636
LeftHandThumb1 -26.253704 0.000000 33.147579
RightShoulder 7.133023 28.203512 -26.310989
RightArm 45.270446 -2.635322 73.442219
RightForeArm -4.753982 0.000000 49.267890
RightHand 25.612156 -0.000000 -23.165282
RightHandThumb1 -24.326973 -0.000000 -32.862282
LeftUpLeg -58.706720 -5.465307 -0.349100
LeftLeg 79.065361 -0.000000 -0.000000
LeftFoot -38.157672 6.241959 -16.091084
LeftToeBase -16.720386 -0.000000 0.000000
RightUpLeg -58.494179 7.206866 1.755589
RightLeg 80.475608 -0.000000 -0.000000
RightFoot -37.612758 -19.569992 12.706619
RightToeBase -18.472381 -0.000000 0.000000
396
root 0.060915 26.388409 2.138045 20.620568 3.906384 -0.273617
Spine 2.649028 -7.360277 -1.047808
Head -28.787658 -4.477325 5.674935
LeftShoulder 1.773109 11.770886 31.342642
LeftArm 88.529473 -17.065058 -73.018087
LeftForeArm 10.402273 -0.000000 58.996300
LeftHand 25.855860 -0.000000 30.182039
LeftHandThumb1 -26.253704 0.000000 33.147579
RightShoulder 6.727410 30.646749 -28.896218
RightArm 46.205135 1.441143 72.075911
RightForeArm -3.517092 -0.000000 52.119268
RightHand 25.653161 -0.000000 -24.074587
RightHandThumb1 -24.326973 -0.000000 -32.862282
LeftUpLeg -57.968017 -5.323234 -0.582005
LeftLeg 78.085921 -0.000000 -0.000000
LeftFoot -37.172443 6.053681 -15.936156
LeftToeBase -17.669081 -0.000000 0.000000
RightUpLeg -57.701388 7.322365 1.456408
RightLeg 79.472517 -0.000000 -0.000000
RightFoot -36.927998 -19.668791 12.648060
RightToeBase -19.031263 -0.000000 0.000000
397
root 0.072899 26.688058 2.323851 20.525446 4.193449 -0.224552
Spine 2.363123 -7.412332 -0.924993
Head -29.247862 -4.696413 6.191917
LeftShoulder 1.520383 12.267473 32.911380
LeftArm 93.019815 -22.752533 -74.300228
LeftForeArm 10.115221 -0.000000 61.472352
LeftHand 25.638525 -0.000000 32.956220
LeftHandThumb1 -26.253704 0.000000 33.147579
RightShoulder 5.778730 32.331589 -31.535958
RightArm 47.090411 6.113182 70.773637
RightForeArm -2.409162 -0.000000 54.859481
RightHand 25.434953 -0.000000 -24.615071
RightHandThumb1 -24.326973 -0.000000 -32.862282
LeftUpLeg -56.913525 -5.104059 -0.734029
LeftLeg 76.712294 -0.000000 -0.000000
LeftFoot -35.802614 5.953153 -15.676427
LeftToeBase -18.768175 -0.000000 0.000000
RightUpLeg -56.505168 7.360230 1.343927
RightLeg 77.918571 -0.000000 -0.000000
RightFoot -35.822582 -20.055748 12.176653
RightToeBase -20.111320 -0.000000 0.000000
398
root 0.084963 27.078373 2.537150 20.462818 4.533602 -0.122763
Spine 2.088498 -7.982604 -0.769326
Head -29.729334 -4.637548 6.527133
LeftShoulder 0.905169 12.117124 34.672157
LeftArm 95.799117 -28.301312 -75.967824
LeftForeArm 9.447395 0.000000 63.984067
LeftHand 25.819840 -0.000000 35.193317
LeftHandThumb1 -26.253704 0.000000 33.147579
RightShoulder 4.965376 32.822853 -33.772350
RightArm 49.069801 11.055502 69.444654
RightForeArm -1.431188 -0.000000 57.150764
RightHand 25.143126 -0.000000 -25.282309
RightHandThumb1 -24.326973 -0.000000 -32.862282
LeftUpLeg -55.600811 -4.869645 -0.958253
LeftLeg 74.811320 -0.000000 -0.000000
LeftFoot -34.022180 6.059847 -15.215391
LeftToeBase -20.113849 -0.000000 0.000000
RightUpLeg -55.034952 7.343959 1.207022
RightLeg 75.836976 -0.000000 -0.000000
RightFoot -34.502500 -20.294097 11.685138
RightToeBase -20.746965 -0.000000 0.000000
